Coordinates
version=1
nRows=14
nColumns=24
inDegrees=yes

Units are S.I. units (second, meters, Newtons, ...)
Angles are in degrees.

endheader
time	pelvis_tilt	pelvis_list	pelvis_rotation	pelvis_tx	pelvis_ty	pelvis_tz	hip_flexion_r	hip_adduction_r	hip_rotation_r	knee_angle_r	ankle_angle_r	subtalar_angle_r	mtp_angle_r	hip_flexion_l	hip_adduction_l	hip_rotation_l	knee_angle_l	ankle_angle_l	subtalar_angle_l	mtp_angle_l	lumbar_extension	lumbar_bending	lumbar_rotation
      3.74000000	    -11.84122106	     -3.37522243	      2.92282383	     -1.77081539	     -0.05078044	     -0.31798351	     40.63736626	      1.53661923	     -3.99577463	    -14.85270553	      0.11915611	      4.88691951	     11.58544797	     -1.43454938	     -1.43195998	      5.90357180	    -22.12328064	     24.35870832	     19.31794487	    -12.76890999	      8.74902116	      0.10057151	    -16.62120247
      3.74500000	    -11.86322135	     -3.77843106	      3.12461560	     -1.76315017	     -0.05198785	     -0.31754362	     40.72326456	      1.79764559	     -4.47308891	    -15.58370656	     -0.61181724	      4.77043135	     11.62145501	     -1.35513672	     -2.09061131	      5.40751863	    -23.18743310	     24.30266199	     20.64132832	    -12.11928096	      8.89955023	      0.59700250	    -16.85236667
      3.75000000	    -11.85397428	     -4.22702367	      3.24315959	     -1.75539834	     -0.05307360	     -0.31699577	     40.76535462	      2.16434092	     -4.87771690	    -16.31829913	     -1.61602921	      4.40333424	     11.87350035	     -1.30868443	     -2.82452360	      4.82555543	    -24.24074466	     24.04905544	     21.99551253	    -11.08142241	      9.02620516	      1.17220439	    -16.94153305
      3.75500000	    -11.91477242	     -4.72906256	      3.45339620	     -1.74766181	     -0.05407641	     -0.31665113	     40.88253132	      2.48836960	     -5.44370252	    -17.10766162	     -2.64967237	      4.10137447	     11.92794508	     -1.11310156	     -3.60003286	      4.41084646	    -25.38721672	     23.68384638	     23.20778692	    -10.20421855	      9.23589158	      1.79450925	    -17.21372185
      3.76000000	    -11.83779411	     -5.11772999	      3.47465130	     -1.73990549	     -0.05476385	     -0.31593653	     40.86081316	      2.89070396	     -5.68429213	    -17.89001097	     -4.04043778	      3.27607267	     12.42473980	     -1.15771578	     -4.30142913	      3.79486111	    -26.23548606	     22.40281706	     24.35490905	     -6.87327659	      9.26908325	      2.31878031	    -17.22295354
      3.76500000	    -11.94005398	     -5.60055898	      3.54289209	     -1.73218767	     -0.05566006	     -0.31537750	     41.09192061	      3.27419213	     -6.21109133	    -18.85977288	     -4.99930073	      3.00948846	     12.21121508	     -0.84311763	     -5.11631324	      3.11980894	    -27.51711365	     21.86269449	     25.82243758	     -6.05975775	      9.51100110	      2.94381772	    -17.28543383
      3.77000000	    -11.86919892	     -6.01909887	      3.51505040	     -1.72443452	     -0.05609800	     -0.31455714	     41.09036308	      3.76061069	     -6.28943869	    -19.77751123	     -6.05283848	      2.16554058	     11.53941350	     -0.80014963	     -5.89285907	      2.42566236	    -28.44919342	     20.22800085	     27.04196842	     -2.42120899	      9.54194723	      3.51222397	    -17.25354716
      3.77500000	    -11.94809126	     -6.47141151	      3.40358814	     -1.71668527	     -0.05669103	     -0.31362247	     41.26851901	      4.31049505	     -6.35109256	    -20.72771501	     -7.05223451	      1.36295672	     10.94395895	     -0.50605761	     -6.73336892	      1.58487609	    -29.68102361	     19.07507119	     28.51444757	     -0.67783618	      9.73910098	      4.12037716	    -17.13470412
      3.78000000	    -11.91994474	     -6.86194606	      3.36653303	     -1.70898246	     -0.05699385	     -0.31275364	     41.32249628	      4.76365764	     -6.45095300	    -21.72459765	     -7.64635911	      0.82640883	     10.04999120	     -0.29432247	     -7.52440680	      0.85486224	    -30.80861035	     17.28900837	     29.88881218	      2.44141061	      9.80339340	      4.64811477	    -17.09903266
      3.78500000	    -11.92969983	     -7.27913216	      3.25147512	     -1.70119114	     -0.05725388	     -0.31183359	     41.40644866	      5.26956642	     -6.60372077	    -22.71932613	     -8.05903904	      0.47723711	      9.23900212	     -0.03112875	     -8.34110486	      0.13928171	    -31.96931028	     15.38341652	     31.17202935	      5.38663560	      9.92021442	      5.22803040	    -16.93610918
      3.79000000	    -11.92167367	     -7.67174201	      3.12760109	     -1.69342872	     -0.05738570	     -0.31081173	     41.42526674	      5.79257495	     -6.61922038	    -23.63934302	     -8.36756596	      0.02387384	      8.51201590	      0.25812046	     -9.15352207	     -0.54595277	    -33.18952249	     13.36302761	     32.49186003	      8.01351568	     10.00540139	      5.76616106	    -16.79671602
      3.79500000	    -11.90968378	     -8.05382638	      3.00682850	     -1.68567643	     -0.05742210	     -0.30969581	     41.38741754	      6.33154019	     -6.55033306	    -24.47417449	     -8.54533436	     -0.47714356	      7.94141207	      0.59303665	     -9.96947426	     -1.15941317	    -34.46525506	     11.21781562	     33.81741345	     10.37814012	     10.08643809	      6.27086078	    -16.69818888
      3.80000000	    -11.87060225	     -8.40987642	      2.84569166	     -1.67796051	     -0.05738240	     -0.30855622	     41.30382895	      6.85470575	     -6.55398826	    -25.29654298	     -8.46941382	     -0.70337614	      7.56851098	      0.92283977	    -10.74605573	     -1.71276867	    -35.74721546	      8.87941535	     34.99340885	     12.79661291	     10.12006169	      6.76354786	    -16.49882017
      3.80500000	    -11.84008223	     -8.78076432	      2.66727399	     -1.67022550	     -0.05727115	     -0.30736287	     41.17908962	      7.40050064	     -6.61404093	    -26.02901273	     -8.31418240	     -0.89759391	      7.42134883	      1.29792955	    -11.52902579	     -2.17424144	    -37.07779726	      6.49764117	     36.05212831	     14.70892738	     10.16955603	      7.26348401	    -16.28292272
